HIERARCHY
ROOT mixamorig:Hips
{
	OFFSET 0.000000 201.639420 0.000000
	CHANNELS 6 Xposition Yposition Zposition Xrotation Yrotation Zrotation
	JOINT mixamorig:Spine
	{
		OFFSET 0.006200 19.524994 -2.481800
		CHANNELS 3 Xrotation Yrotation Zrotation
		JOINT mixamorig:Spine1
		{
			OFFSET -0.000900 22.835007 -2.825400
			CHANNELS 3 Xrotation Yrotation Zrotation
			JOINT mixamorig:Spine2
			{
				OFFSET -0.020600 26.552490 -3.193300
				CHANNELS 3 Xrotation Yrotation Zrotation
				JOINT mixamorig:Neck
				{
					OFFSET -0.060000 30.701813 1.352200
					CHANNELS 3 Xrotation Yrotation Zrotation
					JOINT mixamorig:Head
					{
						OFFSET -0.087200 22.547607 3.670900
						CHANNELS 3 Xrotation Yrotation Zrotation
						JOINT mixamorig:HeadTop_End
						{
							OFFSET -0.830600 40.355194 7.893500
							CHANNELS 3 Xrotation Yrotation Zrotation
							End Site
							{
								OFFSET 0.000000 30.592346 0.000000
							}
						}
						JOINT mixamorig:RightEye
						{
							OFFSET -6.302100 18.118591 16.197100
							CHANNELS 3 Xrotation Yrotation Zrotation
							End Site
							{
								OFFSET 0.000000 30.592346 0.000000
							}
						}
						JOINT mixamorig:LeftEye
						{
							OFFSET 6.741500 18.382690 16.401899
							CHANNELS 3 Xrotation Yrotation Zrotation
							End Site
							{
								OFFSET 0.000000 30.592346 0.000000
							}
						}
					}
				}
				JOINT mixamorig:LeftShoulder
				{
					OFFSET 11.924900 18.230499 1.425400
					CHANNELS 3 Xrotation Yrotation Zrotation
					JOINT mixamorig:LeftArm
					{
						OFFSET 25.435989 -0.697632 -5.229300
						CHANNELS 3 Xrotation Yrotation Zrotation
						JOINT mixamorig:LeftForeArm
						{
							OFFSET 54.684776 0.000000 0.000000
							CHANNELS 3 Xrotation Yrotation Zrotation
							JOINT mixamorig:LeftHand
							{
								OFFSET 55.098175 0.000000 0.000000
								CHANNELS 3 Xrotation Yrotation Zrotation
								JOINT mixamorig:LeftHandMiddle1
								{
									OFFSET 23.369751 0.000000 0.000000
									CHANNELS 3 Xrotation Yrotation Zrotation
									JOINT mixamorig:LeftHandMiddle2
									{
										OFFSET 6.378677 0.000000 0.000000
										CHANNELS 3 Xrotation Yrotation Zrotation
										JOINT mixamorig:LeftHandMiddle3
										{
											OFFSET 6.148331 0.000000 0.000000
											CHANNELS 3 Xrotation Yrotation Zrotation
											JOINT mixamorig:LeftHandMiddle4
											{
												OFFSET 6.582504 0.000000 0.000000
												CHANNELS 3 Xrotation Yrotation Zrotation
												End Site
												{
													OFFSET -1.168900 6.395691 1.028606
												}
											}
										}
									}
								}
								JOINT mixamorig:LeftHandThumb1
								{
									OFFSET 7.235672 -3.848206 5.434273
									CHANNELS 3 Xrotation Yrotation Zrotation
									JOINT mixamorig:LeftHandThumb2
									{
										OFFSET 6.568451 -3.792297 3.792300
										CHANNELS 3 Xrotation Yrotation Zrotation
										JOINT mixamorig:LeftHandThumb3
										{
											OFFSET 6.063080 -3.500519 3.500518
											CHANNELS 3 Xrotation Yrotation Zrotation
											JOINT mixamorig:LeftHandThumb4
											{
												OFFSET 4.793182 -2.767334 2.767349
												CHANNELS 3 Xrotation Yrotation Zrotation
												End Site
												{
													OFFSET 0.101639 6.054260 1.275483
												}
											}
										}
									}
								}
								JOINT mixamorig:LeftHandIndex1
								{
									OFFSET 23.101074 -0.309540 4.992809
									CHANNELS 3 Xrotation Yrotation Zrotation
									JOINT mixamorig:LeftHandIndex2
									{
										OFFSET 6.226883 0.000000 0.000000
										CHANNELS 3 Xrotation Yrotation Zrotation
										JOINT mixamorig:LeftHandIndex3
										{
											OFFSET 6.094330 0.000000 0.000000
											CHANNELS 3 Xrotation Yrotation Zrotation
											JOINT mixamorig:LeftHandIndex4
											{
												OFFSET 5.482605 0.000000 0.000000
												CHANNELS 3 Xrotation Yrotation Zrotation
												End Site
												{
													OFFSET -1.427902 5.233032 0.797164
												}
											}
										}
									}
								}
								JOINT mixamorig:LeftHandRing1
								{
									OFFSET 22.299240 0.021149 -3.964172
									CHANNELS 3 Xrotation Yrotation Zrotation
									JOINT mixamorig:LeftHandRing2
									{
										OFFSET 6.321869 0.000000 0.000000
										CHANNELS 3 Xrotation Yrotation Zrotation
										JOINT mixamorig:LeftHandRing3
										{
											OFFSET 5.899796 0.000000 0.000000
											CHANNELS 3 Xrotation Yrotation Zrotation
											JOINT mixamorig:LeftHandRing4
											{
												OFFSET 6.517899 0.000000 0.000000
												CHANNELS 3 Xrotation Yrotation Zrotation
												End Site
												{
													OFFSET -1.637299 6.232208 0.980890
												}
											}
										}
									}
								}
								JOINT mixamorig:LeftHandPinky1
								{
									OFFSET 20.463791 -0.302338 -8.562233
									CHANNELS 3 Xrotation Yrotation Zrotation
									JOINT mixamorig:LeftHandPinky2
									{
										OFFSET 6.908646 0.000000 0.000000
										CHANNELS 3 Xrotation Yrotation Zrotation
										JOINT mixamorig:LeftHandPinky3
										{
											OFFSET 4.622849 0.000000 0.000000
											CHANNELS 3 Xrotation Yrotation Zrotation
											JOINT mixamorig:LeftHandPinky4
											{
												OFFSET 5.216080 0.000000 0.000000
												CHANNELS 3 Xrotation Yrotation Zrotation
												End Site
												{
													OFFSET -0.606308 5.116241 0.814926
												}
											}
										}
									}
								}
							}
						}
					}
				}
				JOINT mixamorig:RightShoulder
				{
					OFFSET -12.001300 18.284088 1.348900
					CHANNELS 3 Xrotation Yrotation Zrotation
					JOINT mixamorig:RightArm
					{
						OFFSET -25.308500 -0.751312 -5.164599
						CHANNELS 3 Xrotation Yrotation Zrotation
						JOINT mixamorig:RightForeArm
						{
							OFFSET -54.684429 0.000000 0.000000
							CHANNELS 3 Xrotation Yrotation Zrotation
							JOINT mixamorig:RightHand
							{
								OFFSET -55.150291 0.000000 0.000000
								CHANNELS 3 Xrotation Yrotation Zrotation
								JOINT mixamorig:RightHandMiddle1
								{
									OFFSET -23.317566 0.000000 0.000000
									CHANNELS 3 Xrotation Yrotation Zrotation
									JOINT mixamorig:RightHandMiddle2
									{
										OFFSET -6.378403 0.000000 0.000000
										CHANNELS 3 Xrotation Yrotation Zrotation
										JOINT mixamorig:RightHandMiddle3
										{
											OFFSET -6.148193 0.000000 0.000000
											CHANNELS 3 Xrotation Yrotation Zrotation
											JOINT mixamorig:RightHandMiddle4
											{
												OFFSET -6.583389 0.000000 0.000000
												CHANNELS 3 Xrotation Yrotation Zrotation
												End Site
												{
													OFFSET 1.171692 6.395905 1.029786
												}
											}
										}
									}
								}
								JOINT mixamorig:RightHandThumb1
								{
									OFFSET -7.190521 -3.860474 5.435846
									CHANNELS 3 Xrotation Yrotation Zrotation
									JOINT mixamorig:RightHandThumb2
									{
										OFFSET -6.567429 -3.791718 3.791708
										CHANNELS 3 Xrotation Yrotation Zrotation
										JOINT mixamorig:RightHandThumb3
										{
											OFFSET -6.062469 -3.500153 3.500166
											CHANNELS 3 Xrotation Yrotation Zrotation
											JOINT mixamorig:RightHandThumb4
											{
												OFFSET -4.792618 -2.767029 2.767022
												CHANNELS 3 Xrotation Yrotation Zrotation
												End Site
												{
													OFFSET -0.100327 6.053253 1.276754
												}
											}
										}
									}
								}
								JOINT mixamorig:RightHandIndex1
								{
									OFFSET -23.048981 -0.310791 4.992554
									CHANNELS 3 Xrotation Yrotation Zrotation
									JOINT mixamorig:RightHandIndex2
									{
										OFFSET -6.227539 0.000000 0.000000
										CHANNELS 3 Xrotation Yrotation Zrotation
										JOINT mixamorig:RightHandIndex3
										{
											OFFSET -6.095047 0.000000 0.000000
											CHANNELS 3 Xrotation Yrotation Zrotation
											JOINT mixamorig:RightHandIndex4
											{
												OFFSET -5.484772 0.000000 0.000000
												CHANNELS 3 Xrotation Yrotation Zrotation
												End Site
												{
													OFFSET 1.420593 5.237305 0.797056
												}
											}
										}
									}
								}
								JOINT mixamorig:RightHandRing1
								{
									OFFSET -22.246323 0.020569 -3.963762
									CHANNELS 3 Xrotation Yrotation Zrotation
									JOINT mixamorig:RightHandRing2
									{
										OFFSET -6.322128 0.000000 0.000000
										CHANNELS 3 Xrotation Yrotation Zrotation
										JOINT mixamorig:RightHandRing3
										{
											OFFSET -5.900024 0.000000 0.000000
											CHANNELS 3 Xrotation Yrotation Zrotation
											JOINT mixamorig:RightHandRing4
											{
												OFFSET -6.518356 0.000000 0.000000
												CHANNELS 3 Xrotation Yrotation Zrotation
												End Site
												{
													OFFSET 1.636398 6.232697 0.982186
												}
											}
										}
									}
								}
								JOINT mixamorig:RightHandPinky1
								{
									OFFSET -20.411011 -0.303314 -8.561701
									CHANNELS 3 Xrotation Yrotation Zrotation
									JOINT mixamorig:RightHandPinky2
									{
										OFFSET -6.907349 0.000000 0.000000
										CHANNELS 3 Xrotation Yrotation Zrotation
										JOINT mixamorig:RightHandPinky3
										{
											OFFSET -4.623840 0.000000 0.000000
											CHANNELS 3 Xrotation Yrotation Zrotation
											JOINT mixamorig:RightHandPinky4
											{
												OFFSET -5.218353 0.000000 0.000000
												CHANNELS 3 Xrotation Yrotation Zrotation
												End Site
												{
													OFFSET 0.602097 5.118835 0.816273
												}
											}
										}
									}
								}
							}
						}
					}
				}
			}
		}
	}
	JOINT mixamorig:LeftUpLeg
	{
		OFFSET 18.168400 -13.561905 -0.039000
		CHANNELS 3 Xrotation Yrotation Zrotation
		JOINT mixamorig:LeftLeg
		{
			OFFSET 0.577358 -80.825211 -3.695000
			CHANNELS 3 Xrotation Yrotation Zrotation
			JOINT mixamorig:LeftFoot
			{
				OFFSET -0.577356 -83.370262 -6.520700
				CHANNELS 3 Xrotation Yrotation Zrotation
				JOINT mixamorig:LeftToeBase
				{
					OFFSET 0.750401 -20.798306 25.135401
					CHANNELS 3 Xrotation Yrotation Zrotation
					JOINT mixamorig:LeftToe_End
					{
						OFFSET -0.000500 0.001200 19.917799
						CHANNELS 3 Xrotation Yrotation Zrotation
						End Site
						{
							OFFSET 0.000000 19.917805 0.000000
						}
					}
				}
			}
		}
	}
	JOINT mixamorig:RightUpLeg
	{
		OFFSET -18.162500 -13.585098 -0.041000
		CHANNELS 3 Xrotation Yrotation Zrotation
		JOINT mixamorig:RightLeg
		{
			OFFSET -0.595024 -80.945297 -3.631900
			CHANNELS 3 Xrotation Yrotation Zrotation
			JOINT mixamorig:RightFoot
			{
				OFFSET 0.595024 -83.218193 -6.561200
				CHANNELS 3 Xrotation Yrotation Zrotation
				JOINT mixamorig:RightToeBase
				{
					OFFSET -0.753601 -20.807106 25.115000
					CHANNELS 3 Xrotation Yrotation Zrotation
					JOINT mixamorig:RightToe_End
					{
						OFFSET 0.000299 0.001700 19.918200
						CHANNELS 3 Xrotation Yrotation Zrotation
						End Site
						{
							OFFSET 0.000000 19.918203 0.000000
						}
					}
				}
			}
		}
	}
}
MOTION
Frames: 6
Frame Time: 0.033333
0.370918 185.938904 1.868963 5.448726 2.951367 -3.232133 4.921632 1.322341 1.605461 9.857146 2.800257 1.722130 9.857146 2.800259 1.722129 -7.496694 -3.144982 -0.434842 -14.101389 -7.360305 -5.253872 -0.000000 0.000000 -0.000000 -0.000000 0.000000 -0.000000 -0.000000 0.000000 -0.000000 1.084019 -1.226591 -9.108716 21.951253 16.129929 -69.744639 5.201794 -103.989890 -6.123442 11.822901 -20.243308 2.841604 -4.806299 -3.746022 -81.576733 -5.132301 -5.371499 -79.877730 0.000008 0.000007 0.000003 0.000002 0.000002 -0.000001 -3.691975 -7.086354 -6.633083 5.370481 13.667904 2.734626 0.000010 0.000002 0.000005 0.000001 0.000000 0.000000 -4.473750 -5.484360 -78.092046 -6.119746 -4.169253 -86.100832 0.000007 -0.000005 -0.000003 -0.000000 0.000000 -0.000000 -3.655197 4.571974 -85.638845 -3.069026 -4.302895 -82.602955 -0.000000 -0.000002 -0.000000 0.000001 -0.000000 -0.000002 -3.272580 10.937563 -91.302663 -1.692337 -6.213567 -92.125926 -0.000004 -0.000004 0.000007 0.000001 -0.000001 0.000000 0.776419 6.054067 9.529796 5.506732 -10.523588 55.529312 -70.896407 86.710447 75.613425 -0.541024 5.793829 2.436064 -2.180780 2.047355 78.118847 -4.735104 4.314526 85.933164 0.000000 -0.000003 -0.000002 0.000002 0.000001 -0.000000 1.190065 2.334191 7.237152 4.247080 -11.103150 -2.569469 -0.000003 -0.000011 -0.000012 -0.000001 -0.000002 -0.000001 3.425651 2.972096 72.847007 -5.581859 2.947827 92.129635 -0.000002 -0.000004 -0.000003 -0.000004 0.000000 0.000000 -3.529953 -3.130894 85.505431 -4.835732 5.681266 88.623392 0.000003 -0.000002 0.000004 -0.000000 0.000005 -0.000001 -4.108869 -7.839683 98.143391 -5.436761 9.326567 98.221563 0.000002 -0.000007 0.000010 -0.000001 -0.000002 -0.000001 -44.866338 5.440955 -0.768297 100.215513 13.265343 3.881585 -9.798602 -0.865256 5.856655 -0.898544 -2.887881 -6.627545 0.000001 -0.000000 -0.000000 -22.117694 -5.781541 4.081403 48.799014 -0.003215 -1.555140 -22.260234 0.391568 -1.380666 -10.577546 12.984464 -1.069116 -0.000000 -0.000000 0.000000 
2.825674 196.233032 28.573366 2.017572 3.077434 2.503371 4.374864 2.305851 0.917722 8.784875 4.597267 0.639585 8.784871 4.597270 0.639585 -5.923598 -4.594033 -1.932242 -8.531933 -12.830610 -2.074587 -0.000000 -0.000000 -0.000000 -0.000000 -0.000000 -0.000000 -0.000000 -0.000000 -0.000000 1.031944 4.247348 -9.852004 28.765209 29.485237 -47.425798 15.881262 -119.229859 -4.226761 17.950628 -28.289496 4.789589 -4.556322 -3.703304 -78.986179 -4.854964 -5.315549 -77.280558 0.000003 0.000006 0.000005 -0.000005 0.000002 -0.000002 -3.826812 -6.858912 -6.022437 5.256680 13.408362 2.720151 0.000013 -0.000001 0.000004 0.000003 -0.000000 0.000001 -4.223083 -5.425789 -75.494204 -5.806874 -4.140705 -83.510442 0.000008 -0.000002 -0.000001 0.000000 0.000001 -0.000001 -3.475152 4.589775 -83.072784 -2.912964 -4.278927 -80.009341 -0.000004 0.000000 -0.000000 -0.000000 -0.000000 0.000001 -3.109048 10.938079 -88.337835 -1.636588 -6.214355 -89.533712 -0.000005 -0.000000 0.000008 0.000000 0.000000 0.000000 0.843285 3.912619 4.301951 -5.360610 -6.291912 62.866741 -46.809079 82.454932 51.038725 -5.979551 7.950270 1.402202 -2.111864 1.920030 75.664965 -4.484981 4.290779 83.114427 -0.000001 -0.000010 -0.000002 -0.000001 -0.000000 0.000001 0.886432 2.255814 6.589148 4.175405 -10.939429 -2.557231 -0.000002 -0.000013 -0.000006 0.000000 -0.000000 0.000000 3.257531 2.650015 70.475722 -5.301067 2.951575 89.318063 -0.000002 0.000002 -0.000000 -0.000000 0.000000 0.000001 -3.285981 -3.155457 82.949027 -4.593851 5.669833 85.798699 0.000002 -0.000006 0.000003 -0.000000 0.000001 0.000000 -3.754106 -7.799326 94.949998 -5.220500 9.352202 95.383585 0.000005 0.000000 0.000007 -0.000001 0.000001 -0.000001 -63.972638 4.512071 -1.195246 103.163170 3.440729 0.409943 -23.769173 -2.838145 12.096840 -0.116800 -6.151547 -4.680610 -0.000001 0.000000 0.000000 -1.029453 -11.604480 -2.620882 27.201070 8.485327 -3.529752 -11.056583 -1.676884 3.132435 -15.162743 12.563161 -3.551109 0.000000 -0.000000 -0.000000 
2.738285 208.264862 53.854042 -1.591422 5.943414 6.743063 3.620450 2.969194 0.033535 7.271755 6.061766 -0.346743 7.271750 6.061772 -0.346742 -4.362053 -6.214732 -2.818988 -3.316805 -18.308177 3.358992 -0.000001 0.000000 -0.000000 -0.000001 0.000000 -0.000000 -0.000001 0.000000 -0.000000 0.987093 9.006583 -9.021426 29.204270 38.938427 -29.049017 25.470815 -128.579855 5.605914 18.046424 -30.634570 2.773083 -3.906241 -3.536239 -72.127269 -4.135851 -5.107580 -70.405098 0.000003 0.000008 0.000005 0.000002 -0.000002 0.000000 -4.177555 -6.261225 -4.395671 4.955546 12.721165 2.679408 0.000008 -0.000002 0.000006 -0.000001 0.000000 -0.000002 -3.574822 -5.216675 -68.617078 -4.987832 -3.997327 -76.651873 0.000012 -0.000005 -0.000002 0.000000 0.000001 -0.000001 -3.004022 4.675517 -76.276807 -2.506572 -4.181739 -73.141258 0.000003 -0.000002 0.000004 0.000003 0.000001 0.000001 -2.678325 10.979492 -80.485330 -1.489334 -6.204273 -82.668573 -0.000006 0.000001 0.000008 -0.000002 0.000003 -0.000002 0.824292 2.268102 1.154107 -14.891540 -2.369593 67.184288 -41.788095 77.608482 45.488339 -9.178795 9.174784 0.200715 -1.949930 1.588798 69.166621 -3.831395 4.169036 75.650745 -0.000004 -0.000005 -0.000001 -0.000001 0.000000 -0.000002 0.082208 2.062786 4.869248 3.985600 -10.505890 -2.523806 -0.000002 -0.000008 -0.000011 0.000000 -0.000001 0.000004 2.765368 1.889880 64.185951 -4.559896 2.895126 81.872262 -0.000004 0.000002 -0.000000 0.000001 0.000000 -0.000002 -2.647470 -3.272654 76.178985 -3.958963 5.582470 78.318815 0.000000 -0.000006 0.000002 -0.000000 -0.000001 -0.000001 -2.809226 -7.787491 86.492796 -4.644223 9.368698 87.866648 0.000007 -0.000004 0.000009 0.000000 0.000003 0.000001 -80.958294 6.035287 -1.750461 99.709437 -1.544043 -1.485744 -35.742940 -2.315887 8.846952 4.550705 -13.336293 0.270582 0.000001 0.000000 0.000001 4.529700 -18.641980 -10.042628 27.654234 17.271298 0.395127 -0.004952 -5.101504 9.427225 -12.362988 11.723934 -2.164665 -0.000001 -0.000000 0.000000 
-0.667099 224.225418 77.052078 -5.586950 6.362077 8.326078 3.228329 2.941673 -0.005167 6.486069 6.283363 -0.371520 6.486067 6.283362 -0.371517 -2.675859 -7.217506 -2.350219 0.639041 -20.767597 8.539658 -0.000000 0.000000 0.000001 -0.000000 0.000000 0.000001 -0.000000 0.000000 0.000001 0.772006 12.063091 -6.751376 29.125047 39.335664 -22.859955 32.634900 -131.438139 15.292708 13.566930 -26.185904 0.216058 -3.018884 -3.164125 -62.291783 -3.159711 -4.663108 -60.549408 0.000006 0.000007 0.000004 -0.000001 -0.000004 0.000002 -4.665355 -5.414981 -2.037938 4.523905 11.735472 2.614708 0.000012 -0.000001 0.000006 0.000001 -0.000002 0.000001 -2.699347 -4.785280 -58.758355 -3.856072 -3.623867 -66.817958 0.000004 -0.000003 -0.000001 0.000004 -0.000001 -0.000001 -2.353033 4.894121 -66.524342 -1.950477 -3.959359 -63.289175 -0.000004 -0.000001 0.000002 -0.000003 0.000001 -0.000003 -2.079171 11.138725 -69.214542 -1.282593 -6.159474 -72.817835 -0.000004 -0.000002 0.000013 0.000000 0.000000 -0.000001 0.755837 1.478466 0.579203 -21.783623 0.803634 68.159250 -40.798974 72.502902 43.903507 -10.751616 9.726206 -0.847893 -1.547339 1.084823 53.366915 -2.442831 3.397893 57.431352 -0.000001 -0.000005 -0.000003 0.000001 -0.000000 0.000005 -1.974093 1.582262 0.495204 3.504495 -9.403938 -2.433336 -0.000002 -0.000008 -0.000012 -0.000002 -0.000000 0.000001 1.462632 1.217970 48.106808 -3.260165 1.673090 63.022244 -0.000003 -0.000001 -0.000002 0.000001 0.000002 0.000001 -1.181126 -3.779311 60.076568 -2.526142 5.193155 61.117106 -0.000001 -0.000009 0.000005 -0.000002 0.000000 -0.000002 -0.365630 -7.896568 66.135800 -3.540779 9.775125 72.611126 0.000004 -0.000002 0.000007 -0.000002 -0.000001 -0.000004 -86.497898 6.506907 0.308911 90.836694 4.372687 -2.061564 -37.667178 -1.983911 6.741607 1.493529 -17.548679 3.339059 0.000002 -0.000001 -0.000000 9.490941 -22.060989 -10.295910 27.801170 21.096211 0.918922 16.906947 -4.767788 16.565563 -4.966953 8.664804 -0.311985 0.000001 -0.000000 0.000000 
-5.796217 240.230881 98.210091 -10.908418 2.832807 9.035480 3.540308 2.238317 0.269603 7.092661 4.759540 0.158287 7.092658 4.759540 0.158280 -0.481183 -7.269923 -0.603763 2.916978 -19.576270 11.185434 0.000000 -0.000001 0.000002 0.000000 -0.000001 0.000002 0.000000 -0.000001 0.000002 0.570730 13.325299 -4.416636 29.637864 28.177479 -29.549977 37.674422 -127.866441 19.003425 6.248231 -19.974412 1.530951 -2.078277 -2.543246 -50.773471 -2.133603 -3.939791 -49.013902 0.000002 0.000005 0.000004 -0.000001 0.000000 0.000001 -5.214971 -4.438994 0.759937 4.018201 10.580355 2.529493 0.000013 -0.000001 0.000005 0.000001 -0.000001 -0.000000 -1.786090 -4.098742 -47.217497 -2.634708 -2.948676 -55.305626 0.000009 0.000000 -0.000003 -0.000000 -0.000003 -0.000003 -1.650146 5.285707 -55.088092 -1.358911 -3.582620 -51.744840 -0.000000 -0.000005 0.000001 -0.000003 0.000001 -0.000001 -1.432874 11.467234 -55.991295 -1.054395 -6.063138 -61.269481 -0.000001 0.000003 0.000012 -0.000002 -0.000001 -0.000000 0.684683 1.626465 2.403669 -24.745325 2.705591 66.097735 -41.243585 67.318064 43.716913 -11.201163 9.835895 -1.260993 -1.253537 0.252903 33.486430 -1.008198 1.958597 34.520394 -0.000001 -0.000005 -0.000006 0.000001 -0.000000 -0.000001 -4.557640 1.267604 -5.118281 2.892084 -8.007650 -2.304531 -0.000002 -0.000008 -0.000011 0.000000 0.000000 -0.000001 -0.041740 0.786713 27.670732 -1.601281 0.162825 39.083739 -0.000002 0.000004 -0.000002 -0.000000 -0.000001 0.000000 0.304223 -4.992041 39.881867 -1.110892 4.091766 39.730599 0.000003 -0.000002 0.000005 0.000001 -0.000001 -0.000001 2.003569 -9.477729 40.438415 -2.485953 9.631193 54.081397 0.000004 -0.000004 0.000006 -0.000002 0.000001 -0.000002 -83.481693 3.339044 6.307492 87.230989 10.507896 -2.193100 -32.452435 -1.379822 5.128591 -1.772998 -14.652598 2.631123 -0.000002 -0.000000 0.000000 3.019901 -20.699745 -8.428907 52.557554 19.551548 -5.696399 22.727063 -3.283926 13.863106 -3.315637 4.395207 1.056616 -0.000002 -0.000001 0.000002 
-10.902008 253.423874 116.759857 -16.352888 -1.631618 10.519911 4.042935 1.447670 0.323604 8.085104 2.726312 0.458330 8.085106 2.726311 0.458327 2.062391 -6.800840 1.159702 4.599195 -17.033069 11.626700 -0.000000 0.000000 -0.000001 -0.000000 0.000000 -0.000001 -0.000000 0.000000 -0.000001 0.683799 10.169213 -3.704616 24.639230 10.644668 -43.669504 41.878967 -119.753597 21.273642 -0.978966 -17.215893 8.364251 -1.255562 -1.716074 -38.861475 -1.246861 -2.991080 -37.092251 0.000003 0.000004 0.000005 -0.000001 0.000003 -0.000003 -5.760021 -3.445376 3.693753 3.494503 9.384794 2.430685 0.000011 -0.000000 0.000004 -0.000002 -0.000000 -0.000000 -1.005920 -3.210843 -35.287800 -1.539166 -2.007863 -43.406993 0.000008 -0.000005 -0.000005 -0.000000 -0.000000 -0.000003 -1.018975 5.829152 -43.239756 -0.839079 -3.076296 -39.798119 -0.000003 -0.000001 -0.000001 -0.000000 -0.000001 -0.000000 -0.861981 11.950918 -42.280206 -0.843595 -5.917607 -49.311667 -0.000006 0.000002 0.000009 -0.000001 0.000000 0.000001 0.637587 2.268980 5.296430 -23.254612 2.902803 62.258554 -42.078169 62.373363 44.019111 -10.936397 9.704527 -0.534099 -1.256084 -0.509520 18.458520 -0.233573 0.634260 17.220512 -0.000001 -0.000003 -0.000003 0.000002 -0.000001 0.000001 -6.474729 1.256566 -9.413502 2.425689 -6.950576 -2.196357 -0.000001 -0.000008 -0.000010 0.000000 -0.000000 0.000000 -1.032070 0.618086 12.162596 -0.209015 -0.887954 20.919821 -0.000002 0.000000 -0.000001 0.000001 -0.000000 -0.000001 1.040552 -6.245574 24.618099 -0.459937 2.903724 23.661934 0.000002 -0.000005 0.000007 -0.000002 -0.000000 -0.000001 2.837038 -11.521726 20.890566 -2.063031 9.048705 40.285572 0.000006 -0.000005 0.000008 0.000000 -0.000002 0.000004 -72.730798 -0.670839 10.898150 84.471224 13.344409 -1.843514 -27.266576 -1.111502 4.431167 -2.503233 -8.291782 0.741095 -0.000003 0.000001 0.000002 -13.406266 -16.985296 -10.517476 85.691546 10.919651 -4.169855 21.050553 -3.232176 1.372941 -4.812605 0.635361 1.572827 0.000001 -0.000001 0.000001 
